<svg height="40" viewBox="0 0 40 40" width="40" xmlns="http://www.w3.org/2000/svg"><g fill="none" fill-rule="evenodd"><circle cx="20" cy="20" fill="#fff" r="20"/><g transform="translate(8 8)"><path d="m0 0h24v24h-24z"/><path d="m12.8147593 4.08208686c.1984687.01772145.3885098.13375541.5701233.34810188.152281.16769844.2190574.36078379.2003294.57925604-.0196645.22939586-.1393179.50885547-.3589602.83837883l-.8556826 1.24704213c-.7094664 1.02223866-1.2810468 1.80293517-1.7147411 2.34208952-.1859915.22555161-.4455514.48305951-.77867966.77252374-.24328702.2113986-.48803018.4138612-.73422947.6073876l1.23862553-.079867c2.2777321-.1973761 4.1579354-.2960641 5.64061-.2960641 1.0153098 0 1.9606995.0923487 2.8361692.2770461l.3709204.0848101c.9777057.2412374 2.2846186.4934402 2.2846186 1.5790088 0 .9732683-1.3829928 1.1797192-2.6447103 1.2120177l-.4295937.0051349c-.9282832 0-2.0219169.0621735-3.280901.1865204l-.4257855.0437517-1.2892823.0986881c-.3509712.0341143-.7929351.1080288-1.3258915.2217435l-.4791036.1072166-1.0314259.1973761-.3146357.0404597.323135.3561703c.9385358 1.0540865 2.0411784 2.4453902 2.5103294 3.0327709.4592144.5749398.9176833 1.561152.4592144 1.944411-.4232022.3537776-.8584099.2437386-1.1830292.2014855l-.0787799-.0088434c-.3118794-.027848-.5635749-.1150176-.7550865-.2615089l-.0907405-.0781891c-.1970094-.1643542-.3885058-.328216-.5744891-.4915856l-1.05255307-.9415397-.58088584-.5141713c-.47619196-.4329091-1.26356699-1.003872-2.36212508-1.7128887l-2.10345855-1.3526363-.06731059-.0469983c-.86470097-.6055567-1.27083217-1.2141962-1.2183936-1.8259185.02621928-.3058612.18022713-.6443409.46202353-1.0154391.28179641-.3710983.69184959-.7802768 1.23015953-1.2275358l1.02278888-.84979199 1.32798928-1.20228965c.60010036-.58483554 1.14948904-1.06412694 1.64816604-1.43787417.35445477-.40863941.77272984-.81922416 1.25482517-1.23175424l1.0312409-.86738269c.1932455-.16436415.3349616-.2865487.4251481-.36655367.2983355-.36962145.5963547-.54114109.8940578-.51455893z" fill="#000" fill-rule="nonzero"/></g></g></svg>