<?xml version="1.0" encoding="UTF-8"?>
<svg width="40px" height="40px" viewBox="0 0 40 40" version="1.1" xmlns="http://www.w3.org/2000/svg" xmlns:xlink="http://www.w3.org/1999/xlink">
    <title>home</title>
    <g id="Page-1" stroke="none" stroke-width="1" fill="none" fill-rule="evenodd">
        <g id="Recommend" transform="translate(-1055.000000, -512.000000)">
            <g id="home" transform="translate(1055.000000, 512.000000)">
                <circle id="Oval" fill="#FFFFFF" fill-rule="nonzero" cx="20" cy="20" r="20"></circle>
                <g id="ic_check" transform="translate(8.000000, 8.000000)">
                    <polygon id="Bounds" points="0 0 24 0 24 24 0 24"></polygon>
                    <path d="M19.0975223,12.5204334 C20.1619754,13.1422596 22.3293943,13.5519276 22.1270995,11.908617 C21.9248047,10.2653065 17.8177372,7.19734832 16.350452,5.76302215 C14.8831668,4.32869598 12.6413574,2.32927133 11.3457031,3.24650765 C10.0500488,4.16374398 5.67504883,7.92508187 4,9.40275765 C2.32495117,10.8804334 1.85446058,11.7947731 2.80214803,12.5204334 C3.43393965,13.004207 4.23548602,12.8002682 5.20678711,11.908617 C5.20678711,13.7044023 5.20678711,15.0174967 5.20678711,15.8479004 C5.20678711,17.0935059 4.88818359,19 6.40576172,19 C7.92333984,19 7.90692866,19 8.87641108,19 C9.8458935,19 10.2163086,17.3994141 10.2163086,16.2253418 C10.2163086,15.0512695 10.0139956,13.0117187 12.3749177,13.0117187 C14.7358398,13.0117187 14.4111328,15.234375 14.4111328,16.2253418 C14.4111328,17.2163086 14.2263184,19 15.8168945,19 C17.0075722,19 17.0075722,19 17.6152112,19 C18.5155137,19 19.0975223,18.0012563 19.0975223,16.6933594 C19.0975223,15.1985677 19.0975223,13.8075924 19.0975223,12.5204334 Z" id="Path-2" fill="#000000"></path>
                </g>
            </g>
        </g>
    </g>
</svg>