<?xml version="1.0" encoding="UTF-8"?>
<svg width="24px" height="24px" viewBox="0 0 24 24" version="1.1" xmlns="http://www.w3.org/2000/svg" xmlns:xlink="http://www.w3.org/1999/xlink">
    <title>ic-check-green</title>
    <g id="ic-check-green" stroke="none" stroke-width="1" fill="none" fill-rule="evenodd">
        <g id="ic_check">
            <polygon id="Bounds" points="0 0 24 0 24 24 0 24"></polygon>
        </g>
        <path d="M10.08,20 C10.9013333,20 11.676,19.8359909 12.404,19.5079727 C13.132,19.1799544 13.664,18.7122248 14,18.1047836 L16.408,14.0592255 C18.6106667,10.3659833 19.992,8.04555809 20.552,7.09794989 C20.8506667,6.56340167 21,6.02885345 21,5.49430524 C21,5.27562642 20.9813333,5.11769172 20.944,5.02050114 C20.8693333,4.72892938 20.7106667,4.48595292 20.468,4.29157175 C20.2253333,4.09719058 19.9173333,4 19.544,4 C19.1333333,4 18.7786667,4.09719058 18.48,4.29157175 C16.9866667,5.11769172 16.2102474,6.02885345 15.1275808,7.09794989 C14.5302474,7.68109339 13.6902474,8.70159453 12.6075808,10.1594533 C11.9355808,11.0584662 10.5531099,12.7096041 9.76910991,13.6329146 C9.69444324,13.535724 7.81240046,11.5140003 7.47640046,11.052345 C7.14040046,10.5906897 5.19914001,9.38418021 4,10.528704 C2.80085999,11.6732278 6.272,18.5421412 6.832,18.9794989 C7.76533333,19.659833 8.848,20 10.08,20 Z" id="v" fill="#00BC28" fill-rule="nonzero"></path>
    </g>
</svg>