<?xml version="1.0" encoding="UTF-8"?>
<svg width="24px" height="24px" viewBox="0 0 24 24" version="1.1" xmlns="http://www.w3.org/2000/svg" xmlns:xlink="http://www.w3.org/1999/xlink">
    <title>ic-close-red</title>
    <g id="ic-close-red" stroke="none" stroke-width="1" fill="none" fill-rule="evenodd">
        <g id="ic_close">
            <polygon id="Bounds" points="0 0 24 0 24 24 0 24"></polygon>
        </g>
        <path d="M6.61278886,18.9134878 C7.09278886,18.9134878 7.56197226,18.6176471 7.95575955,18.3776471 C8.34954685,18.1376471 8.76242622,17.8776471 9.05575955,17.4776471 L10.3757596,15.6376471 L11.3357596,14.3176471 C11.4957596,14.4509804 11.9866667,15.0043137 12.2,15.1776471 C12.4133333,15.3509804 12.5733333,15.5043137 12.68,15.6376471 L13.36,16.5176471 C13.4133333,16.5709804 13.58,16.7909804 13.86,17.1776471 C14.14,17.5643137 14.4533333,17.8776471 14.8,18.1176471 C15.0666667,18.2776471 15.3866667,18.3843137 15.76,18.4376471 C16.1333333,18.4909804 16.36,18.5176471 16.44,18.5176471 C16.68,18.5176471 16.9866667,18.5443137 17.36,18.5976471 C17.36,18.3843137 17.3733333,18.1843137 17.4,17.9976471 C17.4266667,17.8109804 17.44,17.6109804 17.44,17.3976471 C17.44,17.1043137 17.4,16.8643137 17.32,16.6776471 C17.0533333,15.9843137 16.56,15.0643137 15.84,13.9176471 L14.88,12.6376471 C14.48,12.1576471 14.28,11.8243137 14.28,11.6376471 C14.28,11.4776471 14.4,11.2843137 14.64,11.0576471 C14.88,10.8309804 15.2,10.5576471 15.6,10.2376471 C15.7333333,10.1309804 15.86,10.0243137 15.98,9.91764706 C16.1,9.81098039 16.2133333,9.71764706 16.32,9.63764706 C17.3333333,8.81098039 18.1733333,8.01098039 18.84,7.23764706 C18.92,7.13098039 18.9933333,6.98431373 19.06,6.79764706 C19.1266667,6.61098039 19.16,6.43764706 19.16,6.27764706 C19.16,6.17098039 19.1333333,6.06431373 19.08,5.95764706 C18.68,5.50431373 18.2933333,5.15764706 17.92,4.91764706 C17.5466667,4.67764706 17.1466667,4.55764706 16.72,4.55764706 C16.3466667,4.55764706 15.96,4.66431373 15.56,4.87764706 C15.16,5.09098039 14.76,5.32431373 14.36,5.57764706 C13.96,5.83098039 13.6133333,6.10431373 13.32,6.39764706 C12.9466667,6.79764706 12.6333333,7.11764706 12.38,7.35764706 C12.1266667,7.59764706 11.9466667,7.71764706 11.84,7.71764706 C11.76,7.71764706 11.68,7.66431373 11.6,7.55764706 C11.52,7.45098039 11.4266667,7.25764706 11.32,6.97764706 C11.2133333,6.69764706 11.12,6.45098039 11.04,6.23764706 C10.8533333,5.73098039 10.4866667,5.31098039 9.94,4.97764706 C9.39333333,4.64431373 8.74666667,4.33098039 8,4.03764706 C7.68,3.93098039 7.13333333,4.05098039 6.36,4.39764706 C5.98666667,4.55764706 5.70666667,4.66431373 5.52,4.71764706 C5.57333333,4.87764706 5.65333333,5.14431373 5.76,5.51764706 C5.86666667,5.89098039 6,6.19764706 6.16,6.43764706 L7.04,7.63764706 C7.57333333,8.27764706 7.90666667,8.71764706 8.04,8.95764706 C8.22666667,9.27764706 8.42,9.55098039 8.62,9.77764706 C8.82,10.0043137 8.92,10.1443137 8.92,10.1976471 C8.92,10.2776471 8.80666667,10.4309804 8.58,10.6576471 L7.92,11.3176471 C6.77333333,12.5443137 5.58666667,13.9843137 4.36,15.6376471 C4.12,15.9843137 4,16.3843137 4,16.8376471 C4,16.9709804 4.02666667,17.1176471 4.08,17.2776471 C4.32,17.8643137 4.69333333,18.3109804 5.2,18.6176471 C5.70666667,18.9243137 5.99945553,18.9134878 6.61278886,18.9134878 Z" id="x" fill="#D40808" fill-rule="nonzero"></path>
    </g>
</svg>