<?xml version="1.0" encoding="UTF-8"?>
<svg width="184px" height="96px" viewBox="0 0 184 96" version="1.1" xmlns="http://www.w3.org/2000/svg" xmlns:xlink="http://www.w3.org/1999/xlink">
    <title>logo-eatwhatah-full-white</title>
    <g id="logo-eatwhatah-full-white" stroke="none" stroke-width="1" fill="none" fill-rule="evenodd">
        <path d="M83.4036173,34.5507222 C83.8344692,34.5507222 84.2145174,34.6492914 84.5222485,34.8454008 C85.0292773,35.1497359 85.4015837,35.5417893 85.6265418,36.0183557 C85.8109589,36.4090374 85.9136946,36.8694257 85.9392841,37.3984263 L85.9456709,37.6686392 L85.9456351,38.3014099 L85.9517208,38.8092199 C85.9767984,40.6373567 86.0329535,42.1565553 86.1199722,43.3656176 C86.1902579,44.3421848 86.3340422,45.3644522 86.5515179,46.4323392 L86.6709743,46.9904527 L86.8366438,46.9414265 C87.2916689,46.8145014 87.7292932,46.7295566 88.1495966,46.6870296 L88.4615778,46.6630944 L88.7670712,46.6551069 C90.1356339,46.6551069 91.332635,47.0660017 92.338353,47.8849266 C93.331895,48.6939369 94.0067956,49.7066801 94.3508012,50.9002591 C94.5988981,51.6862039 94.7316604,52.6947844 94.7537178,53.9354136 L94.7570185,54.3145733 L94.7220832,56.8544242 L94.7036515,56.9967571 C94.6556799,57.218712 94.5321901,57.4297555 94.343731,57.6418541 C94.1119106,57.902753 93.8600135,58.0759994 93.6178382,58.1350516 C93.4931948,58.1766155 93.3494109,58.1925977 93.1727655,58.1925977 C92.5451798,58.1925977 91.9230227,57.9008485 91.3066483,57.3458966 C90.7404952,56.8361614 90.4049571,56.3034375 90.3273455,55.7421679 L90.3118271,55.5729251 L90.2476187,53.8962691 L90.2466492,53.7475194 C90.2427539,53.4357722 90.2270231,53.0269118 90.1993827,52.5214652 L90.1845697,52.2606955 C90.1448367,51.5650977 90.0669368,51.0780347 89.956793,50.8014276 C89.8521266,50.5047578 89.7290584,50.291357 89.5955798,50.1578266 C89.4940523,50.0562598 89.4058399,50.0165489 89.3098016,50.0165489 C89.2588226,50.0165489 89.1702485,50.0519922 89.0470159,50.1428304 C88.9310517,50.2283108 88.8241354,50.3418531 88.7214669,50.4941558 L88.645187,50.6158174 C88.2248383,51.2766214 87.6507348,52.634119 86.9443318,54.6494236 C86.6498939,55.5866344 86.0595363,56.1166478 85.2233606,56.1166478 L85.115835,56.1103297 C85.0124447,56.0994706 84.8696679,56.0738043 84.6505865,56.027164 L84.3352121,55.933817 C84.2270664,55.9036663 84.0972405,55.8685059 83.9464013,55.8285624 C83.500172,55.7103971 83.1367334,55.5114574 82.8663743,55.2267586 C82.567239,54.9117574 82.4259043,54.4801476 82.4259043,53.9568614 C82.4259043,49.9609396 82.1832921,46.6580239 81.6992924,44.0475398 C81.4863323,42.8467546 81.3684329,41.487776 81.3448622,39.9699195 L81.3404434,39.3932745 L81.3415989,36.1016844 L81.3526687,35.957194 C81.4089547,35.5517774 81.6513618,35.2140723 82.0414535,34.9539104 C82.4438264,34.6855579 82.9020903,34.5507222 83.4036173,34.5507222 Z M151.045391,34.5507222 C151.476243,34.5507222 151.856291,34.6492914 152.164022,34.8454008 C152.671051,35.1497359 153.043357,35.5417893 153.268315,36.0183557 C153.452733,36.4090374 153.555468,36.8694257 153.581058,37.3984263 L153.587445,37.6686392 L153.587409,38.3014099 L153.593494,38.8092199 C153.618572,40.6373567 153.674727,42.1565553 153.761746,43.3656176 C153.832031,44.3421848 153.975816,45.3644522 154.193292,46.4323392 L154.312748,46.9904527 L154.478417,46.9414265 C154.933442,46.8145014 155.371067,46.7295566 155.79137,46.6870296 L156.103351,46.6630944 L156.408845,46.6551069 C157.777408,46.6551069 158.974409,47.0660017 159.980127,47.8849266 C160.973669,48.6939369 161.648569,49.7066801 161.992575,50.9002591 C162.240672,51.6862039 162.373434,52.6947844 162.395491,53.9354136 L162.398792,54.3145733 L162.363857,56.8544242 L162.345425,56.9967571 C162.297453,57.218712 162.173964,57.4297555 161.985505,57.6418541 C161.753684,57.902753 161.501787,58.0759994 161.259612,58.1350516 C161.134968,58.1766155 160.991185,58.1925977 160.814539,58.1925977 C160.186953,58.1925977 159.564796,57.9008485 158.948422,57.3458966 C158.382269,56.8361614 158.046731,56.3034375 157.969119,55.7421679 L157.953601,55.5729251 L157.889392,53.8962691 L157.888423,53.7475194 C157.884528,53.4357722 157.868797,53.0269118 157.841156,52.5214652 L157.826343,52.2606955 C157.78661,51.5650977 157.70871,51.0780347 157.598567,50.8014276 C157.4939,50.5047578 157.370832,50.291357 157.237353,50.1578266 C157.135826,50.0562598 157.047614,50.0165489 156.951575,50.0165489 C156.900596,50.0165489 156.812022,50.0519922 156.688789,50.1428304 C156.572825,50.2283108 156.465909,50.3418531 156.363241,50.4941558 L156.286961,50.6158174 C155.866612,51.2766214 155.292508,52.634119 154.586105,54.6494236 C154.291667,55.5866344 153.70131,56.1166478 152.865134,56.1166478 L152.757609,56.1103297 C152.654218,56.0994706 152.511442,56.0738043 152.29236,56.027164 L151.976986,55.933817 C151.86884,55.9036663 151.739014,55.8685059 151.588175,55.8285624 C151.141946,55.7103971 150.778507,55.5114574 150.508148,55.2267586 C150.209013,54.9117574 150.067678,54.4801476 150.067678,53.9568614 C150.067678,49.9609396 149.825066,46.6580239 149.341066,44.0475398 C149.128106,42.8467546 149.010207,41.487776 148.986636,39.9699195 L148.982217,39.3932745 L148.983372,36.1016844 L148.994442,35.957194 C149.050728,35.5517774 149.293135,35.2140723 149.683227,34.9539104 C150.0856,34.6855579 150.543864,34.5507222 151.045391,34.5507222 Z M142.265928,40.6827588 C143.363404,40.6827588 144.286212,41.0067837 145.009644,41.6568979 C145.71434,42.2901757 146.195757,43.1285226 146.453204,44.1587095 C146.570679,44.6287893 146.622472,45.1421966 146.610071,45.6963323 L146.55544,46.8791393 L146.53158,47.5565648 C146.51188,48.0689673 146.448727,48.7934861 146.342078,49.7343897 L146.2355,50.6557273 C146.172416,51.2235809 146.128323,51.6960111 146.103127,52.0735995 L146.084226,52.4195956 C146.068724,52.6987458 146.058949,53.0813134 146.055014,53.5633733 L146.053031,54.0784518 L146.089209,57.0100169 L145.557987,57.2186168 C145.181285,57.3556526 144.829219,57.4260931 144.5007,57.4260931 C144.081713,57.4260931 143.66227,57.2907363 143.217616,57.0112704 L142.883621,56.7747693 C142.846134,56.7495268 142.81822,56.7316572 142.800607,56.7215891 C142.611555,56.613517 142.490812,56.426163 142.347923,56.0916119 L142.001957,55.244564 L141.947672,54.9958344 L140.415824,55.318426 L140.258248,55.348875 L139.918132,55.3700955 C139.763198,55.3780701 139.630811,55.3820809 139.52035,55.3820809 C138.651427,55.3820809 137.811551,55.1705617 137.006946,54.7506053 C136.196023,54.3273507 135.545291,53.7355475 135.061763,52.9804798 C134.576806,52.2231801 134.320506,51.4003158 134.296773,50.5218429 C134.271101,49.6229876 134.603893,48.8772464 135.281917,48.329406 C136.534995,47.3265554 137.77902,46.8147954 139.009545,46.8147954 C139.542903,46.8147954 140.096128,46.9189151 140.664987,47.1232431 L141.041742,47.2704984 L142.406599,47.8447859 L142.443802,47.5862266 L142.48818,47.3090736 C142.582424,46.6940067 142.629078,46.1939478 142.629078,45.8127503 C142.629078,45.2786916 142.525774,44.7752435 142.318351,44.2982117 L142.29486,44.2488015 C142.229826,44.2341064 142.17685,44.2258853 142.132541,44.223094 L142.072152,44.2228489 L142.022526,44.230024 C141.663776,44.2852376 141.304942,44.3519712 140.946012,44.430233 L140.407543,44.5562729 C139.808506,44.7060901 139.014952,44.7787676 138.01986,44.7787676 C137.643856,44.7787676 137.28255,44.6356954 136.944025,44.3675927 C136.56575,44.0680091 136.369105,43.6835074 136.412185,43.1977079 C136.491956,42.7720965 136.716595,42.3226446 137.091054,41.8239135 C137.332247,41.5290079 137.655834,41.3394979 138.032748,41.2594157 L138.534058,41.1810443 C138.797133,41.1434919 139.013795,41.1182469 139.16258,41.1085696 C140.512977,40.825312 141.543347,40.6827588 142.265928,40.6827588 Z M32.4188798,40.6827588 C33.5163562,40.6827588 34.4391639,41.0067837 35.1625957,41.6568979 C35.8672923,42.2901757 36.3487093,43.1285226 36.6061563,44.1587095 C36.7236307,44.6287893 36.775424,45.1421966 36.7630228,45.6963323 L36.7083918,46.8791393 L36.6845323,47.5565648 C36.6648321,48.0689673 36.6016787,48.7934861 36.4950306,49.7343897 L36.3884526,50.6557273 C36.3253686,51.2235809 36.2812749,51.6960111 36.2560788,52.0735995 L36.2371783,52.4195956 C36.221676,52.6987458 36.2119012,53.0813134 36.2079666,53.5633733 L36.205983,54.0784518 L36.2421611,57.0100169 L35.7109395,57.2186168 C35.334237,57.3556526 34.982171,57.4260931 34.6536523,57.4260931 C34.2346655,57.4260931 33.8152221,57.2907363 33.3705678,57.0112704 L33.0365733,56.7747693 C32.9990857,56.7495268 32.971172,56.7316572 32.9535596,56.7215891 C32.7645067,56.613517 32.6437641,56.426163 32.5008751,56.0916119 L32.1549091,55.244564 L32.1006243,54.9958344 L30.568776,55.318426 L30.4111997,55.348875 L30.0710847,55.3700955 C29.9161504,55.3780701 29.7837631,55.3820809 29.6733022,55.3820809 C28.8043791,55.3820809 27.9645031,55.1705617 27.1598985,54.7506053 C26.3489747,54.3273507 25.6982434,53.7355475 25.2147155,52.9804798 C24.7297582,52.2231801 24.4734578,51.4003158 24.4497251,50.5218429 C24.4240534,49.6229876 24.7568447,48.8772464 25.4348692,48.329406 C26.6879469,47.3265554 27.9319722,46.8147954 29.1624971,46.8147954 C29.6958556,46.8147954 30.2490801,46.9189151 30.817939,47.1232431 L31.1946941,47.2704984 L32.5595508,47.8447859 L32.5967544,47.5862266 L32.6411324,47.3090736 C32.7353763,46.6940067 32.7820303,46.1939478 32.7820303,45.8127503 C32.7820303,45.2786916 32.6787266,44.7752435 32.4713033,44.2982117 L32.4478121,44.2488015 C32.382778,44.2341064 32.3298023,44.2258853 32.2854929,44.223094 L32.2251047,44.2228489 L32.1754778,44.230024 C31.8167282,44.2852376 31.4578942,44.3519712 31.0989639,44.430233 L30.5604947,44.5562729 C29.961458,44.7060901 29.1679039,44.7787676 28.1728121,44.7787676 C27.7968077,44.7787676 27.4355021,44.6356954 27.0969772,44.3675927 C26.7187025,44.0680091 26.5220569,43.6835074 26.5651367,43.1977079 C26.6449079,42.7720965 26.8695468,42.3226446 27.2440061,41.8239135 C27.4851991,41.5290079 27.808786,41.3394979 28.1857004,41.2594157 L28.6870102,41.1810443 C28.9500854,41.1434919 29.1667474,41.1182469 29.3155317,41.1085696 C30.6659293,40.825312 31.6962993,40.6827588 32.4188798,40.6827588 Z M169.371175,54.0151733 L173.090526,56.5880613 L171.48319,59 L169.421299,57.8995939 C169.244933,57.8027413 169.118296,57.7311999 169.040301,57.6843337 C168.607302,57.4107546 168.293807,57.1784459 168.091962,56.9765236 C167.835288,56.7197494 167.690455,56.4299718 167.690455,56.1126556 C167.690455,55.8020305 167.836062,55.5026118 168.097874,55.1970462 C168.27951,54.985055 168.544716,54.7278006 168.896349,54.4209011 L169.371175,54.0151733 Z M114.833313,32.6055752 L115.157127,32.6429412 L115.460553,32.692581 C115.57105,32.7090789 115.707208,32.7285824 115.86846,32.7509873 C116.303437,32.8114241 116.696052,32.9280268 117.059436,33.110106 C117.975233,33.6074455 118.437666,34.4930181 118.437666,35.6885024 C118.437666,36.0936636 118.370835,36.5861127 118.242088,37.1558603 L118.172577,37.4471294 C118.15277,37.5462027 118.125746,37.6405147 118.091237,37.7297846 L118.033825,37.8598729 C118.011784,37.9039707 117.993881,37.9576998 117.981025,38.0220079 C117.934698,38.2537293 117.907397,38.4504307 117.89833,38.6099495 L117.894936,38.722583 L117.873898,38.8659772 L117.782451,39.1577779 C117.776177,39.1920569 117.795246,39.1816873 117.843057,39.1816873 L117.937843,39.169667 C118.110816,39.1378372 118.464749,39.0436935 118.934808,38.8980024 C119.103412,38.8305346 119.372682,38.7886319 119.795789,38.7523516 C120.18172,38.719259 120.530962,38.702622 120.844037,38.702622 C121.575146,38.702622 122.217344,39.1076645 122.764524,39.8645307 L122.889106,40.0454133 L123.143417,40.432557 L122.339562,41.050229 L122.154673,41.1768946 C121.687611,41.4753536 121.093011,41.7101074 120.370032,41.8859155 L120.119732,41.9423014 L119.918032,42.0446349 L119.453774,42.2882192 C119.16482,42.4440855 118.917052,42.5868302 118.710963,42.7160038 L118.564219,42.8103325 L118.43315,42.8995298 C118.100397,43.1334467 117.866645,43.3846106 117.724891,43.6515444 C117.585902,43.9132726 117.511832,44.2706908 117.511832,44.7268688 L117.516308,44.8617718 C117.528238,45.0815434 117.563991,45.4602254 117.623277,45.9894953 L117.860285,47.9962948 L118.000281,49.2879738 C118.101229,50.1755754 118.193348,50.8832956 118.276704,51.411899 L118.304164,51.5814672 C118.34108,51.8215114 118.422723,52.1145795 118.550116,52.457693 L118.625565,52.6428205 L118.690076,52.7801571 L118.752934,52.7555754 L118.928768,52.668647 L119.07717,52.5815446 L119.66987,51.8605719 C120.051848,51.3866203 120.336379,51.0145647 120.520526,50.749182 L120.639769,50.5702208 L120.955886,50.0325821 C121.12778,49.7377925 121.305468,49.5028996 121.494291,49.3274964 C121.736742,49.1022754 122.03927,48.9865583 122.376453,48.9865583 C122.477126,48.9865583 122.600058,49.0111542 122.844495,49.0731494 C123.262426,49.2038032 123.607502,49.406868 123.871455,49.6848213 C124.170591,49.9998226 124.311925,50.4314323 124.311925,50.9547185 C124.311925,51.1840087 124.298644,51.3567382 124.274481,51.4439343 C124.135665,52.3697355 123.809913,53.2077079 123.298317,53.9521351 C122.804431,54.6707941 122.158331,55.3728638 121.375021,56.04718 C120.969239,56.4241239 120.362312,56.5957131 119.567025,56.5957131 C118.749459,56.5957131 117.944797,56.4148858 117.157256,56.0557205 C116.334427,55.6804617 115.756492,55.1714306 115.44289,54.5177257 C114.769217,53.0611588 114.142731,51.2133882 113.559037,48.9639228 C113.414848,48.3663379 113.302009,47.47296 113.217817,46.2812908 L113.195564,45.9488927 L113.083617,44.5569213 C113.070867,44.3649607 113.065029,44.1894941 113.066413,44.0298563 L113.070216,43.8754702 L113.080198,43.7148433 L113.061168,43.7084775 C112.954631,43.6761165 112.807492,43.6476872 112.62302,43.625138 L112.477717,43.6093591 L112.31872,43.5959678 C111.754426,43.5583336 111.42369,43.1682552 111.379321,42.5948055 L111.374189,42.4592928 L111.396896,42.3104457 C111.655189,41.4835865 112.093043,40.9466544 112.719368,40.76768 C112.979392,40.6896428 113.115146,40.5511199 113.177639,40.3073036 C113.279488,39.9099347 113.361106,39.4965862 113.422124,39.06933 C113.60886,37.7201529 113.650517,36.209532 113.5458,34.5330361 C113.495289,33.5729463 113.813383,32.898135 114.516129,32.6584034 L114.661812,32.6163025 L114.833313,32.6055752 Z M76.9547025,41.896391 C77.2111716,41.896391 77.4480571,41.9408243 77.6681029,42.0352144 C78.0948951,42.2249733 78.4302136,42.4262424 78.6760733,42.6463073 C78.9937596,42.9306631 79.1455776,43.3383324 79.1455776,43.8326135 C79.1455776,44.0331867 79.1325399,44.202742 79.1039653,44.3456706 L78.4314914,47.5575159 L78.2084564,48.601071 L77.2865321,52.8606707 L77.2539374,53.0480772 C77.2201952,53.2337314 77.1860903,53.3957925 77.1626544,53.4733773 C77.0947518,54.0394518 76.9970467,54.5051682 76.8661235,54.8742765 C76.7133114,55.3050958 76.4295582,55.6651174 76.0276023,55.9465955 C75.6202655,56.2318417 75.2015658,56.3690551 74.7753923,56.3385793 C73.9069209,56.2681354 73.0899727,55.9917941 72.330767,55.512725 C71.5610452,55.02702 70.9618491,54.3563726 70.5384975,53.5093413 C70.3895277,53.2112863 70.251144,52.950871 70.1236898,52.7284774 L70.0301538,52.5688173 L69.9949825,52.5146751 L69.9551757,52.6520931 L69.7074795,53.3475314 C69.5550168,53.7647866 69.4276464,54.0897822 69.3239069,54.3254066 L69.2279902,54.5313474 C69.0717917,54.8438655 68.8478637,55.1318845 68.5594751,55.3952978 C68.2401612,55.6869582 67.9040073,55.8588368 67.5598944,55.8900318 L67.1955375,55.9271485 C66.9762148,55.9469789 66.8035766,55.9569593 66.6747491,55.9569593 C65.8149692,55.9569593 65.1164026,55.732562 64.6016436,55.2704199 C64.1646745,54.8781162 63.7840278,54.2644248 63.4423573,53.4196387 L63.3298869,53.129471 L62.6880887,51.2672015 L62.5849873,50.9464959 C62.2498166,49.923487 61.934398,49.1549925 61.6443945,48.6472897 L60.6400299,46.9218683 C60.5257754,46.727576 60.4067101,46.5254503 60.2832656,46.3161158 C60.1501225,46.1496224 60.0501111,45.928083 59.9696715,45.6464354 C59.8491815,45.2245567 59.8305412,44.9914636 60.1180863,44.7109 L60.2897114,44.5772516 C60.3646022,44.5178073 60.4570101,44.4435912 60.5664385,44.354972 C60.8190638,44.1503865 61.0647335,43.9906393 61.3052661,43.8766587 C61.5702479,43.7510924 61.8275563,43.6849017 62.0775029,43.6849017 C63.073104,43.6849017 63.9051235,44.4212041 64.5980414,45.7956255 L64.9535537,46.4949014 C65.2967689,47.1639231 65.6038404,47.7437549 65.8814974,48.2485518 L66.1495989,48.7288614 L66.6528005,50.0165489 L66.7746387,49.8305867 C66.9830594,49.5133103 67.1826504,49.2191658 67.3734709,48.9480989 L67.5613701,48.6847225 L67.7434355,48.4367191 C68.3044696,47.684132 69.058261,47.2938607 69.9630572,47.2938607 L70.1044059,47.2994747 C70.2449466,47.308917 70.4448452,47.3304842 70.7227229,47.3657855 C71.5405508,47.514539 72.1585342,47.8464271 72.5502365,48.3734032 C72.8512593,48.7783839 73.1290039,49.3312633 73.3876466,50.03031 L73.6005484,50.623365 L74.1432873,48.714108 L74.2214348,48.4309086 C74.5220719,47.2834957 74.71833,45.819065 74.8078942,44.0406409 L74.8280611,43.589495 L74.8503848,43.4602026 C74.9840164,43.0324159 75.2208799,42.6668278 75.5556611,42.3721062 C75.9191837,42.0520823 76.3931509,41.896391 76.9547025,41.896391 Z M42.6988331,31.9318315 C42.937122,31.9318315 43.1419547,31.9483827 43.3014411,31.9804083 L43.4123677,32.0073121 C44.3839943,32.2206786 45.0624764,32.5415399 45.4463713,33.0078786 C45.809963,33.4495539 46.0428804,34.0749955 46.1617076,34.8833625 C46.1880569,35.0678793 46.1734953,35.3499462 46.123274,35.7557574 L46.0995826,35.937329 L45.5201685,40.9516768 L45.4723432,41.202039 L45.3864956,41.5925365 L45.3775671,41.6408895 L45.3961616,41.6451571 C45.493542,41.6638257 45.6388065,41.676288 45.8164559,41.6821838 L46.1052814,41.6860578 L46.2642781,41.6842168 L46.8313262,41.5637705 C47.3697443,41.4524141 47.8215325,41.3684601 48.1800318,41.3131053 L48.5071883,41.267328 C48.653358,41.2380827 48.851412,41.2256995 49.1158226,41.2256995 C49.4718389,41.2256995 49.7296593,41.2740596 49.8497127,41.3741962 C50.0981625,41.4984692 50.2300044,41.7318183 50.3165512,42.0608236 C50.3812646,42.30683 50.4127888,42.5780428 50.4127888,42.8744828 C50.4127888,43.1521307 50.3805994,43.4097455 50.314777,43.646798 C50.2177679,43.996166 50.0602846,44.238542 49.7683404,44.3110791 C49.1672259,44.4892561 48.4615532,44.6326514 47.6726412,44.7387806 L47.0943118,44.8473388 C46.4617505,44.9702437 45.9767543,45.0800111 45.6395131,45.1763738 C45.5060126,45.2127971 45.3487847,45.3200394 45.1736212,45.511201 C45.0058704,45.6942728 44.9280901,45.8369253 44.9212186,45.8969772 C44.8787966,46.9367181 44.8469769,47.9977861 44.8256937,49.0831861 C44.8049559,49.8922741 44.8360632,50.7013754 44.919585,51.5163549 C44.9763682,52.1412121 45.093999,52.5711836 45.2484755,52.7952612 C45.364459,52.9635026 45.5281387,53.042645 45.7955893,53.042645 C46.0650773,53.042645 46.5042261,52.9375905 47.0642123,52.7331702 C47.4631356,52.5585736 47.8262228,52.4677666 48.158063,52.4677666 C48.7818023,52.4677666 49.2459379,52.8289008 49.4785467,53.4409084 C49.568456,53.6507781 49.6146558,53.8664606 49.6146558,54.0846122 C49.6146558,54.5067131 49.4501107,54.8705852 49.1338483,55.1370146 C48.8841661,55.3473548 48.5638683,55.5232727 48.170162,55.6709555 C47.4820912,55.9233458 46.7804347,56.0614301 46.0509918,56.0847101 C45.0723448,56.0847101 44.1484745,55.8448787 43.2871375,55.3674665 C42.4206114,54.8871782 41.7326715,54.210736 41.2299565,53.3452633 C40.7674366,52.5489905 40.5450362,51.6476313 40.5606693,50.654343 L40.5847952,50.055939 C40.5973709,49.6676945 40.603734,49.1362733 40.603734,48.4635786 C40.603734,47.4349759 40.5740677,46.3943335 40.5170051,45.360588 L40.4550817,44.4104861 L40.3027455,44.3655671 L40.138421,44.3244902 L39.9954862,44.2923225 C39.4118558,44.1907822 39.0124116,44.0442626 38.747787,43.7779724 C38.5510922,43.5530913 38.4132085,43.3062564 38.339272,43.0399818 C38.2906384,42.864833 38.2477058,42.6452546 38.209267,42.3786685 L38.1644955,42.0356937 L38.2177427,41.9114021 C38.4891852,41.2777909 39.0225266,40.9382603 39.811786,40.9450501 L40.0526969,40.9817045 C40.1551069,40.9953851 40.2296203,41.0021357 40.2725088,41.0021357 C40.5169752,41.0021357 40.5938309,40.9652307 40.6101804,40.9259766 C40.6738698,40.7730628 40.7132593,40.5931734 40.7264675,40.3850554 L40.7314352,40.2236545 L40.7320576,39.400292 L41.0193277,33.716567 C41.0458244,33.1599214 41.1954895,32.7178816 41.4911584,32.4065307 C41.7936088,32.0880385 42.207397,31.9318315 42.6988331,31.9318315 Z M102.526884,40.7146965 C103.839975,40.7146965 105.062349,41.0047673 106.1873,41.5845122 C107.318514,42.1674842 108.159814,42.9046332 108.700194,43.7977801 C109.232508,44.6775969 109.571316,45.8638839 109.727221,47.3567056 C109.899598,48.9733646 109.985438,51.0235779 109.985438,53.5097338 C109.985438,54.3739987 109.858539,54.8958952 109.463658,55.1146019 C109.219252,55.2674147 108.971162,55.3501432 108.720397,55.3501432 C108.421792,55.3501432 108.143077,55.2572024 107.898637,55.0778769 C107.708543,54.9384204 107.50885,54.7507571 107.280786,54.4964277 C107.135486,54.3187703 107.020468,54.2180903 106.953461,54.1893137 C106.824275,54.1318756 106.701462,54.1045733 106.5814,54.1045733 C106.488039,54.1045733 106.422349,54.1236519 106.370499,54.1595621 C106.268825,54.2299789 106.142393,54.3477364 105.976369,54.5332902 C105.694147,54.8156215 105.3977,55.052871 105.076855,55.2502276 C104.759073,55.4356726 104.246143,55.5872787 103.491339,55.72838 C103.171864,55.774037 102.904778,55.7972709 102.686511,55.7972709 C101.725415,55.7972709 100.731037,55.5869496 99.70516,55.1696731 C98.657919,54.7437068 97.8972096,54.218673 97.4279451,53.5762231 C96.9399404,52.8927519 96.7039251,52.1471517 96.7285563,51.3595144 C96.7523278,50.2180416 97.2211816,49.0923563 98.1197128,47.9860695 C98.9613314,46.9668733 99.7398887,46.238444 100.46546,45.8006283 C101.208392,45.3523372 102.19957,45.0772217 103.484644,44.9624093 C103.705101,44.9624093 104.046224,44.9228434 104.498755,44.8423623 L104.610237,44.8208624 L104.70713,44.7988311 L104.759662,44.7837579 L104.749718,44.7605876 L104.704122,44.6866462 L104.643682,44.6117161 L104.567583,44.5352083 C104.43342,44.4117311 104.070458,44.319753 103.493367,44.3025921 L103.293092,44.2997022 C103.08037,44.2997022 102.781604,44.3114013 102.398678,44.334889 L101.381489,44.401988 C101.087091,44.4189545 100.86299,44.427453 100.707141,44.427453 C99.8872311,44.427453 99.2691767,44.2886523 98.9197155,44.0234548 C98.5812106,43.8541367 98.516266,43.5455306 98.516266,42.9702959 C98.516266,42.1407214 98.8468611,41.54227 99.511571,41.2889652 C100.358114,40.9738503 101.231285,40.7878311 102.129544,40.7311747 L102.526884,40.7146965 Z M15.2670012,41.5770141 C16.0211781,41.5770141 16.7539293,41.6915508 17.4590112,41.9191067 C19.6867509,42.6155451 20.8738856,43.6299489 20.8738856,45.0143081 C20.8738856,45.8566876 20.4112113,46.8061308 19.5074934,47.8954969 C19.072166,48.3997555 18.557993,48.8455447 17.9663117,49.2325632 C17.5436015,49.5090577 17.1296043,49.7644663 16.7242762,49.998779 L15.2682461,50.8077517 C14.9661925,50.9890541 14.5727254,51.0704926 14.0857643,51.0704926 L13.8124193,51.0618453 L13.7435648,51.0565199 L13.7867877,51.1293497 C13.891144,51.2899594 14.0174936,51.4386712 14.1664965,51.5761175 L14.323075,51.7098319 L14.4949025,51.8361765 C15.0500849,52.2156981 15.6649168,52.4038912 16.3524621,52.4038912 C16.9505174,52.4038912 17.4731213,52.2754826 17.9443361,52.0118725 C18.6896199,51.6290109 19.330782,51.1780191 19.8626976,50.6657289 C20.3522486,50.1759883 20.8508201,49.9127514 21.3647375,49.9127514 C21.7694017,49.9127514 22.1157758,50.1133615 22.3961539,50.5015539 C22.6178715,50.8619845 22.7255543,51.2928826 22.7255543,51.7850985 C22.7255543,52.3081278 22.6143974,52.7390275 22.389562,53.0471305 C21.7781857,53.9880738 20.9735887,54.6439254 19.9859242,55.0010509 C19.0449324,55.3413002 17.9611334,55.5098316 16.7355659,55.5098316 C15.4482831,55.5098316 14.2050787,55.2271757 13.0109691,54.6636982 C11.8200857,54.1017431 10.8007027,53.329867 9.9567179,52.3504653 C9.10600005,51.3632502 8.54142533,50.2621882 8.27122689,49.0673397 C8.09061814,48.3672097 8,47.6759787 8,46.9944449 C8,45.8747158 8.32408021,44.9449181 8.97661059,44.2305516 C9.59438642,43.5542331 10.559561,42.93312 11.8789953,42.3514911 C13.0867838,41.8368634 14.2161257,41.5770141 15.2670012,41.5770141 Z M104.671867,48.1621667 L104.596323,48.1634731 C104.279136,48.1801736 103.918352,48.3034159 103.514938,48.5418891 C103.09491,48.7901837 102.699855,49.1275561 102.33681,49.5479039 C101.9601,50.0040976 101.670256,50.4611477 101.465871,50.9187587 C101.269412,51.3586219 101.174049,51.7538512 101.172686,52.0676115 C101.205213,52.5068926 101.308117,52.7539572 101.444037,52.8481577 C101.504763,52.8915502 101.584102,52.9148943 101.696826,52.9148943 C101.771247,52.9148943 101.830507,52.9095916 101.886478,52.8968187 L101.96945,52.8717855 C102.91823,52.5890609 103.850164,52.1330465 104.762923,51.5040309 C104.929217,51.3875799 105.081576,51.2351617 105.220216,51.0444576 L105.52784,50.6140331 C105.506006,50.6467955 105.53619,50.4958176 105.558447,50.2805842 C105.581299,50.0595985 105.588817,49.8768114 105.582306,49.7350708 L105.57675,49.6702245 L105.543282,49.5301922 L105.468999,49.1646346 C105.424063,48.930876 105.358344,48.7292602 105.296407,48.6003114 C105.233145,48.4990533 105.116394,48.3895568 104.9408,48.2777719 C104.853483,48.2221851 104.780986,48.1886748 104.722763,48.1723381 L104.671867,48.1621667 Z M138.786068,49.7291096 C138.691298,49.7291096 138.556525,49.7529023 138.386676,49.8038769 C138.261624,49.841407 138.185989,49.8868055 138.150533,49.9293379 C138.039615,50.0649565 137.975963,50.2842893 137.975963,50.6034039 C137.975963,50.9078733 138.032173,51.1568993 138.104031,51.2999591 C138.227459,51.4697386 138.378536,51.5982037 138.562198,51.6900703 C138.748894,51.7834545 138.938647,51.8290128 139.137246,51.8290128 L139.214625,51.8213756 C139.266699,51.8139421 139.336387,51.8013915 139.412602,51.7850985 C139.8856,51.6470873 140.273176,51.4871503 140.574615,51.3081017 C140.709203,51.2281588 140.837115,51.1264632 140.958277,51.0021498 L141.028821,50.9227808 L140.604359,50.6072351 C140.302318,50.3876662 140.046229,50.2133758 139.837161,50.0848721 L139.717371,50.0132684 C139.385415,49.821009 139.076419,49.7291096 138.786068,49.7291096 Z M28.9390198,49.7291096 C28.8442505,49.7291096 28.7094776,49.7529023 28.539628,49.8038769 C28.4145763,49.841407 28.3389414,49.8868055 28.3034851,49.9293379 C28.1925674,50.0649565 28.1289148,50.2842893 28.1289148,50.6034039 C28.1289148,50.9078733 28.1851247,51.1568993 28.2569833,51.2999591 C28.3804115,51.4697386 28.5314883,51.5982037 28.7151503,51.6900703 C28.9018465,51.7834545 29.091599,51.8290128 29.2901984,51.8290128 L29.3675775,51.8213756 C29.4196516,51.8139421 29.4893391,51.8013915 29.5655543,51.7850985 C30.0385521,51.6470873 30.4261279,51.4871503 30.7275667,51.3081017 C30.8621553,51.2281588 30.9900674,51.1264632 31.1112293,51.0021498 L31.1817736,50.9227808 L30.7573115,50.6072351 C30.4552699,50.3876662 30.1991816,50.2133758 29.9901133,50.0848721 L29.8703232,50.0132684 C29.5383674,49.821009 29.2293712,49.7291096 28.9390198,49.7291096 Z M16.659968,44.54898 C16.250804,44.5563622 15.8262213,44.6952243 15.3797369,44.9743851 C14.8418921,45.3106684 14.3971789,45.736419 14.0423321,46.2545042 C13.7445658,46.6892504 13.5825599,47.0944768 13.5441305,47.4312669 L13.5351911,47.5713021 L13.5520128,47.7030624 L13.6737281,47.7868988 L14.3893493,47.2465393 C15.3465921,46.5153051 16.111338,45.9007691 16.6747866,45.4113297 L16.8377735,45.2682592 C16.8520155,45.2540117 16.8832205,45.1395487 16.8832205,44.918495 L16.8793977,44.7368289 L16.8712485,44.6380421 L16.7136173,44.5502135 L16.659968,44.54898 Z M172.383493,30 L172.459844,30.0028027 C175.236749,30.3189956 177.295354,31.6690489 178.581692,34.0172448 C178.860859,34.4996303 179,35.0437548 179,35.6405959 C179,36.1277593 178.91421,36.5936551 178.744993,37.0288306 C178.106548,38.7388768 177.041367,40.4304255 175.554471,42.103027 L174.149844,43.6362835 C173.16379,44.7513844 172.315601,45.6589766 171.604145,46.3599247 C170.877155,47.0761765 170.083861,47.7099556 169.232199,48.2560088 C168.606762,48.6731284 167.841374,48.9931157 166.953539,49.2148749 C166.68354,49.2920475 166.395292,49.2570948 166.096156,49.131094 C165.835094,49.0211307 165.605334,48.8678976 165.43448,48.6954147 C165.157794,48.4532205 165.008728,48.1363334 165.008728,47.7769183 C165.008728,47.4366528 165.157512,47.0943179 165.4436,46.7228825 L167.787286,43.8944139 L168.76679,42.6952171 L170.197446,41.0097048 L172.894974,37.7090202 L173.069408,37.4710771 C173.459351,36.9144271 173.806361,36.244459 174.101118,35.4827899 C174.191333,35.2120393 174.235146,34.966592 174.235146,34.7463405 C174.235146,34.3797526 174.12576,34.160897 173.902676,34.0244953 C173.776191,33.9485752 173.575608,33.9039839 173.29734,33.9039839 C173.038193,33.9039839 172.800919,33.9463707 172.572395,34.0341736 C172.156292,34.1840287 171.637041,34.5175646 171.035476,35.027147 L170.831934,35.2035176 C170.289562,35.720263 169.6017,35.9799338 168.795869,35.9799338 C168.312489,35.9799338 167.85634,35.8706729 167.434076,35.6530588 C167.002767,35.4307828 166.653687,35.1079235 166.378576,34.6659235 C166.213668,34.3634748 166.126114,34.0715165 166.126114,33.7882098 C166.126114,33.3065398 166.332566,32.8639712 166.714025,32.4824409 C168.154348,30.9985485 169.939796,30.1750785 172.047949,30.019083 L172.383493,30 Z" id="eatwhatah?" fill="#FFFFFF" fill-rule="nonzero"></path>
        <path d="M89.5694716,84 C89.7364644,84 89.9660796,83.9731183 90.258317,83.9193548 L90.258317,83.9193548 L91.260274,83.6774194 C91.9908676,83.4623656 92.5753425,83.327957 93.0136986,83.2741935 L93.0136986,83.2741935 L94.2661448,83.1532258 C95.6647097,82.9650538 96.8649706,82.8709677 97.8669276,82.8709677 C99.1819961,82.8709677 100.288324,83.0188172 101.18591,83.3145161 C101.248532,83.3413978 101.446836,83.3145161 101.780822,83.233871 C101.926941,82.938172 102,82.655914 102,82.3870968 C102,82.1182796 101.937378,81.8897849 101.812133,81.7016129 C101.686888,81.5134409 101.499022,81.2983871 101.248532,81.0564516 C100.455316,80.2768817 99.5838226,79.7392473 98.6340509,79.4435484 C97.6842792,79.1478495 96.6457926,79 95.518591,79 C94.0782779,79 92.2517939,79.1209677 90.0391389,79.3629032 L90.0391389,79.3629032 L88.5362035,79.483871 C87.9726027,79.5645161 87.4298761,79.7526882 86.9080235,80.0483871 C86.3026745,80.4247312 86,80.8682796 86,81.3790323 C86,81.8360215 86.208741,82.2526882 86.6262231,82.6290323 C87.5655577,83.5430108 88.5466406,84 89.5694716,84 Z" id="--copy-4" fill="#FFFFFF" fill-rule="nonzero" transform="translate(94.000000, 81.500000) rotate(-180.000000) translate(-94.000000, -81.500000) "></path>
        <path d="M87.3658537,100 C89.7073171,99.7165066 90.7235772,99.0644719 92.4146341,98.0438957 C94.1056911,97.0233196 95.4281843,95.4357567 96.3821138,93.2812071 C99.4607046,86.2505716 102,79.5884774 102,73.2949246 C102,72.5578418 101.95664,71.4522176 101.869919,69.9780521 L101.674797,68.0219479 C101.327913,64.3365341 100.926829,61.260631 100.471545,58.7942387 C100.01626,56.3278464 99.1815718,54.0457247 97.9674797,51.9478738 C97.1436314,50.6438043 95.4308943,47.8372199 92.8292683,43.5281207 L90.8130081,40.2112483 C90.2926829,39.4174668 89.6639566,38.8504801 88.9268293,38.5102881 C88.1897019,38.170096 87.2140921,38 86,38 C86.1300813,38.5102881 86.3143631,39.2190215 86.5528455,40.1262003 C86.7913279,41.0333791 87.0406504,41.7421125 87.300813,42.2524005 L87.2926829,42.2353909 C87.3455144,42.298917 87.8235388,43.0736485 88.7267561,44.5595853 L88.9268293,44.8888889 C89.3604336,45.4558756 89.7723577,46.079561 90.1626016,46.7599451 C90.4227642,47.1568358 90.9539295,47.964792 91.7560976,49.1838134 C92.5582656,50.4028349 93.1761518,51.6076818 93.6097561,52.7983539 C95.6910569,58.4682213 96.7317073,64.1097394 96.7317073,69.7229081 C96.7750678,76.5834476 95.2574526,83.2738912 92.1788618,89.7942387 L89.5772358,95.3223594 L87.3658537,100 Z" id=")-copy-4" fill="#FFFFFF" fill-rule="nonzero" transform="translate(94.000000, 69.000000) rotate(-270.000000) translate(-94.000000, -69.000000) "></path>
        <rect id="Rectangle" x="0" y="0" width="184" height="96"></rect>
    </g>
</svg>